<?xml version="1.0" encoding="utf-8"?>
<!-- Generator: Adobe Illustrator 22.1.0, SVG Export Plug-In . SVG Version: 6.00 Build 0)  -->
<svg version="1.1" id="Capa_1" xmlns="http://www.w3.org/2000/svg" xmlns:xlink="http://www.w3.org/1999/xlink" x="0px" y="0px"
	 viewBox="0 0 300 300" style="enable-background:new 0 0 300 300;" xml:space="preserve">
<style type="text/css">
	.st0{fill:none;stroke:#000000;stroke-width:2;stroke-linecap:round;stroke-miterlimit:10;}
</style>
<polyline class="st0" points="152.6,69.4 250.4,241.9 252.3,245.3 51.4,245.3 149.5,71.5 "/>
<path class="st0" d="M272.9,231.7c17.9,0,19.1,16.1,19.1,22.9c0,15.2-14.8,21.4-19.1,21.4s-23.1-1.7-22.7-27.5"/>
<path class="st0" d="M52.5,248.8c0,0,5.4,24.7-20.3,26.6c0,0-20.6,0.6-21-21.4c0,0-1-19.4,19.4-21.3c0,0,9.4-2.5,18.4,8.5"/>
<path class="st0" d="M144.4,68.2c0,0-16.2-5.4-16.5-23.2s16.3-25.5,23.9-23.9c7.7,1.5,19.6,3,23.5,22.9c0,0,1.5,19.5-18.8,25"/>
<path class="st0" d="M175.3,103.6c0,0,69.4,21.9,56.5,98"/>
<path class="st0" d="M227.9,212.2c0,0-9.4,22.4-17.6,27.7"/>
<path class="st0" d="M202.2,248.9c0,0-47.3,35.1-99.2,0"/>
<path class="st0" d="M92.4,240.1c0,0-16-16.6-18.7-28"/>
<path class="st0" d="M71,200.8c0,0-13.7-73.5,54.7-95.7"/>
<path class="st0" d="M140.2,101.7c0,0,14.5-1.3,23,0"/>
<path class="st0" d="M137.4,44.8c0,0,11.6-18.3,28.4-0.8c0,0-12.4,18.3-27.3,2.7"/>
<path class="st0" d="M148.3,44.2c0,0,0.3-2.9,3.3-3s3.8,3,3.8,3s0,3.9-3.8,3.8c-3.8-0.1-3.4-2.8-3.3-2.8"/>
<path class="st0" d="M145.8,121.1l12.9,0c0,0,2.5-0.4,2.5,3c0,3.4-2.7,69.4-2.7,69.4s0.6,4.7-2.8,4.7c-3.4,0-8,0-8,0s-3.9,0.7-3-4.1
	c0.9-4.8-2.5-71.1-2.5-71.1"/>
<path class="st0" d="M147.3,205.8h8.2c0,0,3.4-0.8,3.6,2.1c0.2,2.9,0,16.6,0,16.6s0.5,2.8-3.2,2.8c-3.7,0-8.6,0-8.6,0
	s-2.9,1.8-2.9-2.6c0-4.4,0-4.4,0-4.4l0-12.5"/>
<path class="st0" d="M267,241.6c0.9-0.5,13.1-2.2,13.4,12.5c0.4,14.7-16.2,12.8-19,5c0,0,8,2.4,10.4-5.2c2.4-7.6-2.5-10.1-2.5-10.1"
	/>
<polyline class="st0" points="34.7,250.1 34.8,249.4 40.7,245.3 36.4,251.7 46,253.7 36.9,255.5 41.6,263.2 33.9,258.4 32.2,267.8 
	30.8,258.5 22,263.2 27.5,256.7 18.3,254 27.5,252.8 22.9,245.3 29.8,250.1 32.2,240.9 33.8,248.1 "/>
</svg>
