<?xml version="1.0" encoding="utf-8"?>
<!-- Generator: Adobe Illustrator 22.1.0, SVG Export Plug-In . SVG Version: 6.00 Build 0)  -->
<svg version="1.1" id="Layer_1" xmlns="http://www.w3.org/2000/svg" xmlns:xlink="http://www.w3.org/1999/xlink" x="0px" y="0px"
	 viewBox="0 0 228 172" style="enable-background:new 0 0 228 172;" xml:space="preserve">
<style type="text/css">
	.st0{fill:#010101;}
	.st1{fill:#030303;}
	.st2{fill:#020202;}
	.st3{fill:#040404;}
	.st4{fill:#050505;}
	.st5{fill:#090909;}
	.st6{fill:#0C0C0C;}
	.st7{fill:#070707;}
	.st8{fill:#060606;}
	.st9{fill:#0F0F0F;}
	.st10{fill:#252525;}
	.st11{fill:#A3A3A3;}
	.st12{fill:#080808;}
	.st13{fill:#121212;}
	.st14{fill:#292929;}
	.st15{fill:#D5D5D5;}
	.st16{fill:#2C2C2C;}
	.st17{fill:#CACACA;}
	.st18{fill:#909090;}
	.st19{fill:#B8B8B8;}
	.st20{fill:#949494;}
	.st21{fill:#C2C2C2;}
	.st22{fill:#C8C8C8;}
	.st23{fill:#D3D3D3;}
	.st24{fill:#898989;}
	.st25{fill:#A5A5A5;}
	.st26{fill:#C9C9C9;}
	.st27{fill:#B4B4B4;}
	.st28{fill:#F4F4F4;}
	.st29{fill:#F2F2F2;}
	.st30{fill:#F5F5F5;}
	.st31{fill:#EBEBEB;}
	.st32{fill:#E3E3E3;}
	.st33{fill:#E7E7E7;}
	.st34{fill:#EAEAEA;}
	.st35{fill:#D6D6D6;}
	.st36{fill:#959595;}
	.st37{fill:#626262;}
	.st38{fill:#D4D4D4;}
	.st39{fill:#E5E5E5;}
	.st40{fill:#BCBCBC;}
	.st41{fill:#747474;}
</style>
<path d="M168.4,55.5c-7.4,1.1-12.8,5.5-17.4,11c-0.9,1-1.6,2.2-2.6,3.1c-2.1,1.9-2,4-1.1,6.4c0.9,0.5,0.8,1.3,0.7,2.1
	c-0.2,1.9-1.4,3.5-1.6,5.4c-0.3,0.9-0.7,1.7-1.8,1.9c-2.2,2.5-5.4,2.8-8.4,3.6c-1.1,0.3-2.4,1.2-3.3,0.7c-1-0.6,0.3-2,0.1-3
	c0-0.1,0-0.1,0-0.2c0-4.4-0.5-8.8,2.3-12.9c-4.1,3.5-9.2,2.2-13.6,3.5c-0.5,0.1-1.2,0.4-1-0.5c0.8-3.4,0.3-6.8,0.6-10.2
	c0.1-0.8,0.3-1.6,0.5-2.6c-3.1,1.9-6.4,1-9.6,1.4c-3.1,0.3-3.1,0.3-3-2.8c0-1.8-0.1-3.6-0.1-5.4c0-1.5,0.2-3,1.5-4
	c1.4-2,2.7-2.2,4.2-0.3c1.3,1.5,2.9,2.6,4.2,4.1c1.1,1.3,3.1,1.4,4.6,2.2c0.5,0.2,1.2,0.2,1.8,0.5c0.6,0.2,1.3,0.4,1.8-0.1
	c1.1-1.2,2.6-1.3,4-1.8c1.7-0.3,3.3-1.1,5.1-0.2c1.5,2.5,1.1,4-1.3,5.3c2.5-0.8,2.2-3,1.9-5.1c0.3-0.6,0.3-0.6,0.1-0.6
	c-2.3-0.1-4.6,0.2-6.8,0.8c-5.4,1.4-9.5-0.6-13-4.5c-2.2-2.4-4.5-4.6-7.2-6.3c-1.3-1.1-3-1.3-4.3-2.4c-1.1-0.9-1.6-1.7-1.2-3.1
	c0.6-1.2,1.6-1.7,2.9-1.5c5.1,0.8,9.6-0.8,14-3.2c4.7-2.6,9.4-1.9,14.1,0.1c1.1,0.2,1.8,0.9,2.3,1.8c1.8,2.1,2.7,5,5.3,6.5
	c0.5,0.3,0.5,1.1,0.4,1.8c-1.9,0.9-3.4,0-4.8-1c-0.6-0.5-1.1-1.1-1.7-1.7c-1.5-1.5-1.7-1.5-3.1,0.1c-1.6,0.3-2.8-0.7-4.2-1.2
	c-0.7-0.3-1.4-0.9-2.3-0.6c2-0.3,3.3,1.5,5.1,1.8c0.6,0.1,1.2,0.5,1.7-0.2c0.9-1.3,1.8-0.7,2.6,0.1c1.2,1.3,2.4,2.7,4.3,3
	c0.8,0.1,1.8,0.6,2.4-0.4c0-0.8-0.6-1.7,0.7-2.1c3.8,0.2,6.1,2.4,6.7,6.4c0.8-2-1.4-4.7-4.8-6c-0.6-0.3-1.3-0.6-1.8-0.4
	c-1.7,0.8-2.5-0.3-3.4-1.3c-1.2-1.5-2-3.2-3.2-4.6c-0.4-0.9-1.5-1.3-1.9-2.2c-1.4-1.1-2.6-2.3-3.3-4c-0.7,0-0.6,0.6-0.7,1
	c-0.3,1-1,1.3-1.9,0.9c-2-0.9-4.1-0.6-6.1,0c-3,0.9-6,1.7-9.2,1.4c0.6,2.5,0.5,2.6-2.2,3.2c-1.7,0.4-3.3,0.1-5-0.2
	c-0.2-0.1-0.7-0.1-0.7-0.3c-0.7-2.3-2.9-1.8-4.5-2.6c-1.1-0.6-2.1-1.2-3.1-2c-0.4-0.4-1.2-0.7-0.9-1.3c0.3-0.7,1-0.3,1.5-0.2
	c6,0.6,12,0.8,18,0.5c0.6,0,1.3,0.1,2-0.4c-1-0.9-2.1-1.8-2.8-2.9c-0.3-0.5-0.9-1-0.4-1.5c0.4-0.6,1.1-0.2,1.6,0
	c4,1.7,8.1,2.6,12.5,2.3c3.1-0.2,6.2-0.6,9.1-1.8c2.1-0.9,4.1-1,6.2-0.5c1.6,0.4,3.2,0.6,4.8,0.9c0.4,0.1,0.8,0.1,0.9,0.6
	c0.1,0.6-0.4,0.7-0.8,0.9c-1,0.4-2.2,0.2-3.5,0.4c0.8,0.7,1.6,0.6,2.4,0.6c2.8,0,5.7,0.1,8.5,0.1c1.5,0,3,0.3,4.3,0.9
	c0.6,0.3,1.4,0.4,1.4,1.2c0.1,0.8-0.8,0.9-1.4,1.1c-1.6,0.8-3.1,1.5-4.7,2.2c-1.2,0.9-2.6,0.8-3.6,0.9c1.1,0.2,2.5-0.6,4-0.5
	c1.7-0.4,3.4-0.7,5.1-1.1c1.6-0.3,3.2-0.4,4.8-0.2c1.3,0.2,2.5,0.7,3.4,1.7c0.7,0.8,1.5,1.8,1,3c-0.4,1.1-1.6,0.9-2.5,0.9
	c-5.1,0.2-10.2,0.2-15.3,0.6c-1,0.1-1.9,0-3,0.5c1,0.5,1.9,1,2.9,1.5c0.3,0.1,0.7,0,0.9,0.3c2.3,2.3,4.9,4.2,7.4,6.3
	c1.3,1.3-0.4,1.3-0.8,1.9c-0.3,0.7-1,0.8-1.5,1.1c-3.3,1.7-6.6,3.2-9.7,5.1c-1.5,0.9-2.8,2.1-3.7,3.1c2-2.5,5-3.9,8-5.6
	c1.8-0.9,3.6-1.7,5.3-2.7c1-0.6,2.1-0.3,3.2-0.6c0.2,0,0.5,0,0.7-0.1c2-0.4,3.9-0.4,5.9-0.2c1,0.1,1.9-0.1,2.9-0.2
	c4.3-1.5,8-0.1,11.4,2.4c1.6,1.2,3,2.6,3.7,3.5c-3.6-4.1-8.2-8-15.3-5.9c-2.4,0.3-4.7,0.2-7-0.4c-0.5-1.1,0.5-1.2,1-1.4
	c2.4-1.3,4.7-2.4,7.1-3.7c1.7-1.6,3.9-2,6.1-2.2c0.4,0,0.9,0.2,1.3-0.1c3.7-0.5,7.3-0.4,11,0.3c3.9,0.8,7.2,2.6,9.7,5.9
	c0.7,1,1.3,2.3,2.8,2.5c0.6,0.1,0.6,0.6,0.5,1.1c-0.1,4-6.8,11.4-10.7,11.9c-2.5,0.3-4.9-0.1-7.2-1c-4-1.7-7.8-3.7-11.5-5.9
	c-1.3-1.4-3.2-1.8-4.8-2.4C170.5,56.6,169.9,55,168.4,55.5z"/>
<path class="st0" d="M147,77.8c0.3-0.5,0.4-1.2,0.4-1.8c0.5-1.8,1-3.6,1.7-5.4c0.2-0.6,0.6-1.4,1.4-1.4c0.9,0,0.9,0.9,1.2,1.5
	c0.2,0.3,0.3,0.7,0.5,1c0.5,0.6,0.7,1.5,0.5,2c-0.8,1.4-0.1,2.5,0.4,3.6c0.3,0.8,1,1.2,1.7,1.6c5.7,3.4,11.3,7,16.6,9.6
	c-5.3-2.7-11.1-6.3-16.8-9.8c-0.5-0.3-1.1-0.6-1.4-1.3c-1.3-1.8-0.1-3.8-0.4-5.6c0-0.3,0-0.6,0-1c0-0.6-0.2-1.5,0.5-1.7
	c0.7-0.2,0.9,0.6,1.2,1c2.1,2.7,4.9,4.6,7.5,6.7c1.3-0.4,1.6,1,2.3,1.5c1.5,0.9,3.1,1.9,4.6,2.8c1,0.2,2.1,0.2,2.4,1.5
	c3.2,1.9,6.4,3.8,9.6,5.6c1.1,0.6,1.3,1.4,1.2,2.6c-0.5,3.7-4,7.6-7.7,8.4c-0.3,0.1-0.7,0.2-0.8-0.1c-0.1-0.2,0.1-0.6,0.2-0.9
	c0.5-1.1,1.1-2.1,1.2-3.2c0-0.2-0.1-0.5-0.2-1c-1.1,1.2-2.3,1.9-3.8,1.9c-2.9,0.2-3.1,0.1-4.2-2.6c-2.2-5.5-9.4-7.9-15.4-5.1
	c-4.5,2.1-7.5,5.6-9.9,9.8c-1,1.8-1.9,3.7-2.9,5.5c-0.2,0.3-0.4,0.7-0.9,0.6c-0.4-0.1-0.4-0.5-0.4-0.8c0-3.7-0.3-7.5,0.9-11.2
	c0.5-1.5,1.2-2.6,2.9-3.1c1.8-0.5,3.2-1.7,4.1-3.3c0.2-0.9,0.8-1.6,1.1-2.4C146.8,81.6,146.6,79.7,147,77.8z"/>
<path d="M81.7,113.9c-0.4-4.1,0.8-7.3,4.4-9.6c1.8-1.1,3.7-1.3,5.7-1.4c1.2,0,2.5-1,3.4-0.3c1.1,0.8-0.2,2.1-0.1,3.2
	c0.1,1.8,0.5,3.6,0.9,5.3c1,4.2-0.4,6.4-4.6,7.2c-2.7,0.5-5.5,0.4-8.2,1.3c-0.9,0.3-1.2-0.4-1.2-1C81.8,117,81.8,115.4,81.7,113.9z"
	/>
<path d="M95.5,123.6c0,0.9,0,1.8,0,2.7c-0.2,4-2.9,7.2-6.8,8c-2.4,0.5-4.9,0.6-7.3,0.5c-0.6,0-1.3,0-1.3-0.8c0.1-3-0.6-6.1,0.6-9
	c1.3-3.4,2.9-4.6,6.5-4.7c2.5-0.1,5-0.1,7.4-1.2c0.8-0.4,1.1,0.1,1.1,0.7c0,1.2,0,2.4,0,3.7C95.6,123.6,95.5,123.6,95.5,123.6z"/>
<path d="M110.4,103.2c-0.3,2-0.2,4-0.7,6c-0.4,1.8-1.3,3.1-3.2,3.7c-2.5,0.8-5.1,1.4-7.4,2.8c-0.9,0.5-1.3,0-1.3-0.8
	c0-2.5-1-5-1.1-7.5c-0.3-5.9,2.7-9.1,8.6-9.2c1.2,0,2.3,0.1,3.5-0.1c1.5-0.2,1.8,0.5,1.6,1.8C110.3,101,110.4,102.1,110.4,103.2z"/>
<path d="M86.3,100.3c0.3-1.7,0-3.3-0.2-5c-0.6-4.3,2-7.8,6.2-8.6c2.5-0.5,5.1-0.9,7.6-1.5c1.3-0.3,1.7,0.1,1.4,1.4
	c-0.6,3.1-1.1,6.2-1.8,9.3c-0.6,2.8-2.4,4.5-5.2,4.9c-2.3,0.3-4.6,0.5-6.9,0.7C86.3,101.7,86.2,101.2,86.3,100.3z"/>
<path d="M67.1,117.7c0-1.1-0.1-2.2,0-3.3c0.3-4.1,3.5-7.2,7.6-7.3c1.6-0.1,3.2,0,4.8,0c0.7,0,1.3,0.1,1.1,1.1
	c-0.7,2.9-0.5,5.9-0.6,8.9c-0.2,3-1.2,4.3-4,5.3c-2.8,1-5.6,0.6-8.4,0.4c-0.8-0.1-0.7-0.5-0.7-1.1c0.1-1.3,0.1-2.6,0.2-3.9
	C67.1,117.7,67.1,117.7,67.1,117.7z"/>
<path d="M113.8,117c-0.5,1.7,0.4,3.8-1.4,5.6c-2.2,2.3-4.5,4.2-7.8,4.7c-1.9,0.3-3.8,0.9-5.6,1.4c-1.1,0.3-1.5,0-1.5-1.2
	c0.1-2.1,0.1-4.3,0.1-6.4c0-2.4,1.3-4,3.5-4.8c1.7-0.6,3.5-0.9,5.2-1.4c2.1-0.6,3.6-2.2,5.7-2.8c1.6-0.5,2.2-0.1,2,1.5
	C114,114.8,113.9,115.8,113.8,117z"/>
<path class="st0" d="M77.2,77.4c2.1-1.2,4.4-1.8,6.8-2c1.5-0.1,2.9-0.4,4.3-0.9c1.2-0.5,1.7-0.2,1.7,1.1c-0.2,2.9-0.4,5.8-1.3,8.6
	c-0.7,2.3-2.3,3.9-4.7,4.5c-2.7,0.7-5.4,1.4-8,2.1c-1.2,0.3-1.6,0.2-1.4-1.3c0.4-2.7,0.4-5.5,0.6-8.3C75.4,79.7,75.2,77.9,77.2,77.4
	z"/>
<path class="st0" d="M104.4,68.6c0.9-0.1,1.8,0,1,1.9c-0.8,1.8-0.6,3.8-0.5,5.7c0.2,2.9-1.1,4.7-3.4,6.2c-3,2-6.4,2.2-9.8,2.7
	c-0.9,0.1-1.2-0.4-1.1-1.2c0.4-3.1,0.7-6.3,1.2-9.4c0.3-2.2,1.8-3.5,3.8-4.3C98.3,69.3,101.1,68.9,104.4,68.6z"/>
<path d="M130.5,76.8c1.5-0.3,1.9,0.4,1.6,2.1c-0.3,1.9-0.2,3.9-0.3,5.8c-0.2,3.4-1.4,4.8-4.7,5.7c-2.4,0.7-4.9,0.4-7.3,0.7
	c-3.4,0.4-3.4,0.3-2.9-3.1c0.2-1.5,0.5-3.1,0.5-4.6c0.1-2.4,1.3-3.8,3.5-4.6C123.8,77.8,127,77.1,130.5,76.8z"/>
<path class="st0" d="M107,96.3c-1.3-0.1-2.9,0.1-4.4,0.5c-1,0.2-1.5,0-1.4-1.1c0.4-2.6,0.6-5.3,1.2-7.9c0.9-4,3.2-5.7,7.3-6.1
	c1.6-0.2,3.2-0.3,4.8-0.7c1.3-0.3,1.9,0.1,1.8,1.4c-0.3,2.4-0.4,4.9-0.9,7.3C114.6,93.5,111.1,96.3,107,96.3z"/>
<path d="M119.9,70.4c0.2,6.4-0.8,9.7-8.5,9.8c-1.6,0-3.2,0.1-4.8,0.8c-1,0.4-1.4,0-1.2-0.9c0.6-2.3,0.5-4.7,0.6-7.1
	c0.3-3.8,3.2-6.6,6.9-6.8c1.5-0.1,3.1,0,4.6-0.1c1.7-0.1,2.4,0.7,2.2,2.3C119.9,69.2,119.9,70.1,119.9,70.4z"/>
<path d="M84.7,92.8C84.6,95,85.4,97,85,99.1c-0.8,4.1-2.4,5.9-6.5,6.4c-2.2,0.3-4.4,0.5-6.5,0.8c-1.3,0.2-1.6-0.3-1.4-1.5
	c0.4-2.5,0.8-5.1,1.2-7.6c0.4-2.5,2.1-4,4.4-4.7c2.3-0.8,4.7-1.4,7.1-1.8C85.4,90.2,84.5,91.9,84.7,92.8z"/>
<path class="st0" d="M120.4,104c1.6,0.1,2.6-1.1,3.9-1.5c0.7-0.2,1.4-0.8,2-0.1c0.5,0.6,0.2,1.4-0.1,2c-1.4,2.8-3.5,4.8-6.8,5.2
	c-2.4,0.3-4.8,0.2-7.1,0.8c-0.9,0.2-1-0.2-0.9-0.9c0.5-3.2,0.3-6.5,0.7-9.7c0.4-3.7,2.9-5.4,6.1-6.5c3.3-1.1,3.5-1.1,3.5,2.4
	C121.6,98.6,121.8,101.4,120.4,104z"/>
<path class="st1" d="M131.5,58.2c-0.5,0.6-1.1,1.1-2,0.9c-0.2-0.1-0.6-0.1-0.8,0c-2.6,2.8-4.8,0-7.1-0.6c-0.6-0.1-1.1-0.2-1.7-0.3
	c-0.5-0.1-1.2-0.1-1.4-0.5c-0.7-1.8-2.4-2.6-3.5-3.9c-1.2-1.5-2.5-2.1-4.3-1c-0.1-0.5-0.4-0.4-0.7-0.3c-4.4,1.5-8.6,0.2-12.8-1.1
	c-0.8-0.2-1.2-0.6-0.7-1.5c0.7-1.1,1.3-2.2,1.9-3.3c0.4,0.3,1,0.5,1.1,1c0.8,3,3.5,3.2,5.8,3.9c1.1,0.4,2.2-0.6,2.4-1.9
	c0.2-1.2-0.3-2.1-1.5-2.3c-1.8-0.4-3.6-0.9-5.5-0.4c-0.8,0.2-1.6,0.4-2.4-0.3c0.2-2,2.5-2.8,3.2-4.8c-1.1,0.2-1.6,0.8-2,1.4
	c-1.1,1.7-2.5,1.9-4.3,1.5c-2.8-0.7-5.7-1.1-8.4-2.4c-0.6-0.3-1.4-0.5-1.2-1.3c0.2-0.9,1-0.5,1.6-0.6c3.5-0.3,7-0.5,10.3-1.7
	c1.5-0.5,3.2-0.7,4.8-0.3c0.8,0.2,1.9,0.2,2,1.2c0.1,1-1.1,0.9-1.6,1.4c0.1,0.6,0.7,0.9,1.1,1.3c1.9,1.8,4.6,2.4,6.5,4.2
	c2.5,1.9,4.6,4.1,6.8,6.3c2.5,2.6,5.2,5.1,9.3,5c1.1,0,2.2,0.2,3.3-0.3C130.4,57.3,131.1,57.5,131.5,58.2z"/>
<path class="st0" d="M83,73.7c-4.2,0-4.2,0-2.8-4c0.6-1.7,1.3-3.4,1.9-5.1c0.9-2.3,2.8-3.5,4.8-4.6c0.5-0.3,1-0.3,1.5-0.1
	c1.7,0.5,3.4,0.5,5.2,0c1.2-0.4,1.7,0.1,1.5,1.4c-0.1,0.5-0.1,1-0.1,1.5C95,71.1,89.9,73.6,83,73.7z"/>
<path d="M64.1,96.4c-1,0-1.5,0-2,0c-3.7,0-3.8,0-3.4-3.9c0.2-2.3-0.1-4.8,2-6.7c1.5-1.3,3-1.9,4.9-1.7c2.4,0.4,4.8,1.1,7.3,0.6
	c0.8-0.2,1,0.4,1,1.1c0.1,1.1-0.1,2.2-0.3,3.3c-0.3,1.6-1.1,3-1.6,4.5c-0.5,1.6-2.3,2.4-4.1,2.6C66.4,96.4,65,96.4,64.1,96.4z"/>
<path d="M58.4,110.8c-0.5,0-0.9,0-1.4,0c-1.6,0.1-2.1-0.6-1.9-2.2c0.4-2.2,0.3-4.5,0.8-6.7c0.4-2.1,1.5-3.3,3.7-3.5
	c2.9-0.3,5.8-0.7,8.7-0.7c1.2,0,1.6,0.3,1.4,1.6c-0.3,1.7-0.5,3.4-0.8,5.2c-0.4,3.1-2.2,5-5.2,5.8C62,110.6,60.2,110.8,58.4,110.8z"
	/>
<path class="st0" d="M92.2,142.4c-0.1-6.7,2.5-10.3,7.9-12.1c1.5-0.5,2.4-0.2,2.5,1.5c0.1,2.1,0.1,4.3,0.8,6.3
	c0.2,0.8-0.3,1.5-0.8,2.1c-3,3.4-5.7,7-6.4,11.7c0,0.3-0.1,0.7-0.5,0.8c-0.7,0.1-0.8-0.5-1.1-0.9C93,148.6,92.2,145.2,92.2,142.4z"
	/>
<path class="st0" d="M74.8,80c-0.5,2.2-2.1,3.1-4.2,3.3c-2,0.2-4,0.3-6-0.1c-1.3-0.2-1.8-0.8-1-2.1c1-1.5,1.5-3.2,1.9-4.9
	c0.4-1.5,0.8-3,1.6-4.3c1.4-2.4,3.3-3.3,6-2.8c1.5,0.3,2.9,0.6,4.4,0.3c1.4-0.2,1.3,0.6,0.9,1.5c-0.6,1.5-1.9,2.4-2.9,3.9
	c1.1,0.1,2.3,0.2,1.2,1.7C76.3,77.8,75.8,79,74.8,80z"/>
<path class="st0" d="M80.9,58.7c1.1,0,2-0.1,2.8,0c1.1,0.1,1.5,0.8,0.6,1.5c-2.4,1.7-3.7,4-4.8,6.6c-0.5,1.3-1.8,1.6-3.1,1.5
	c-2.1-0.2-4.1-0.7-6-1.3c-1.1-0.3-1.1-0.8-0.7-1.7c1.3-2.4,2.2-5,3.1-7.5c0.9-2.5,2.7-3.5,5.2-3.7c1-0.1,2.1,0,3.1,0
	c1.9,0.1,2.3,0.8,1.3,2.4C81.9,57.1,81.5,57.7,80.9,58.7z"/>
<path class="st0" d="M48,78.4c0.4-0.4,0.8-0.8,1.2-1.2c0.4-0.3,0.7-1,1.3-0.8c0.8,0.3,0,1,0.2,1.6c3.7-1.2,7.2,0.5,10.9,0.6
	c0.8,0,1.1,0.7,0.7,1.4c-0.4,0.7-0.8,1.3-1.2,2c-0.5,0.9-1.8,1.4-1.5,2.9c0.1,0.5-0.8,0.9-1.4,1.2c-3.3,1.9-6.8,1.7-10.4,1.4
	c-0.2,0-0.4-0.1-0.6-0.1c-3.3-0.5-3.6-1.2-1.8-4.3C45.7,81.3,45.9,79.3,48,78.4z"/>
<path class="st0" d="M93,52.6c1.8,0,3.2-0.1,4.6,0c1.4,0.1,1.8,0.6,0.8,1.9c-2,2.9-4.7,4-8.1,3.8c-1.8-0.1-3.6-0.2-5.4-0.5
	c-0.7-0.1-1.4-0.3-1.2-1.2c0.9-3.6,1.6-7.2,4.5-9.9c1.3-1.2,2.7-2,4.5-1.3c0.6,0.2,1.3,0.2,1.9,0.3c2.6,0.2,2.7,0.4,1.2,2.6
	C95,49.7,94.1,50.9,93,52.6z"/>
<path class="st2" d="M125.8,111.5c0.1,0.8-0.1,1.6-0.8,2.4c-3.6,3.8-5.9,8.2-7.1,13.3c-0.1,0.6-0.1,1.5-0.9,1.5
	c-0.6,0-0.6-0.9-0.7-1.4c-0.9-4.5-0.9-9-0.2-13.5c0.2-1.3,0.8-2.2,2.3-2.4c1.6-0.2,3.1-1,4.5-1.7
	C125.7,108.4,125.7,108.4,125.8,111.5z"/>
<path class="st0" d="M47.6,97.9c-3.6,0.2-3.5,0.5-3.2-3.3c0.1-0.6,0.1-1.3,0.2-1.9c0.4-2.4,1.1-2.9,3.5-2.9c2.8,0,5.5,0.4,8.3-0.4
	c0.8-0.2,1.1,0.2,1.2,1c0.3,5.1-1.1,6.7-6.3,7.2C50.1,97.7,48.9,97.8,47.6,97.9z"/>
<path class="st2" d="M130.9,93.6c1.3-1.6,2.9-2.5,4.9-2.8c1-0.1,1.4,0,1.2,1.2c-0.8,3.8-2.6,6.6-6.5,7.6c-1.9,0.5-3.8,0.8-5.7,1.2
	c-1.1,0.2-1.6-0.2-1.6-1.3c0-0.1,0-0.3,0-0.4c-0.3-6.1,0.1-6.6,6.2-8c0.8-0.2,1.1,0,1.2,0.8C130.5,92.4,130.5,93,130.9,93.6z"/>
<path class="st2" d="M65.7,68.1c2.3-0.1,2.1,0.8,1,2c-1.4,1.6-2.2,3.5-2.7,5.5c-0.4,1.5-1.2,2-2.7,1.8c-1.9-0.3-3.8-0.6-5.7-0.9
	c-0.8-0.1-1.3-0.4-0.8-1.3c2.6-4.7,5.4-9.2,11.1-10.7c0.6-0.2,1.3-0.8,1.8-0.2c0.6,0.7-0.1,1.3-0.5,1.9
	C66.8,66.8,66.3,67.3,65.7,68.1z"/>
<path class="st2" d="M45,82.3c-2,3.1-2,3.1-5.6,1.9c-1.9-0.6-3.8-1.3-5.4-2.6c-1.4-1.1-1.3-1.7,0.2-2.2c4.3-1.6,8.6-3.1,12.6-5.5
	c0.8-0.5,1.8-0.7,2.5,0.1c0.8,0.9-0.2,1.5-0.6,2.2c-0.3,0.6-0.7,1.2-1.1,1.8C46.9,79.5,46.3,81.2,45,82.3z"/>
<path class="st3" d="M166.2,57.5c2,0,3.6,0.4,5.2,1.1c4.1,1.9,7.9,4.7,12.3,6c0.6,0.2,1.4,0.7,1.1,1.6c-0.2,0.7-1,0.8-1.7,0.6
	c-2.1-0.5-4.2-1-6.2-1.6c-3.5-1.1-6.8-4-11-2.3c-0.6,0.2-0.9-0.3-1.2-0.7c-0.5-1-1.1-2-2.1-2.8c-0.8-0.6-0.4-1.1,0.3-1.4
	C164.2,57.5,165.3,57.4,166.2,57.5z"/>
<path class="st0" d="M99.2,55.1c0.8-1.4,2-1.7,3.5-1.3c1.3,0.3,2.6,0.4,3.8,0.5c1.1,0.1,1.7,0.6,1.7,1.7c0.1,2.1,0.3,4.3,0.3,6.4
	c-0.1,3.2-1.6,4.8-4.7,5.4c-2.4,0.5-4.9,0-7.3,0.6c-0.6,0.1-1.1-0.2-1-0.8c1-3.8,0.6-8,3-11.5c1.2,0,1.2,1,1.3,1.8
	c0.1,1.7,0.1,3.4-0.1,5c-0.1,1.3,0.3,1.8,1.6,1.6c1.8-0.2,3.2-0.7,3.3-2.8c0-0.5,0.4-0.9,0.7-1.3c0.6-0.7,1-1.5,0.4-2.5
	c-0.6-0.9-1.4-1.3-2.5-1.2c-0.9,0.1-1.8,0.3-2.7,0C99.9,56.4,99.2,56.1,99.2,55.1z"/>
<path class="st2" d="M60.7,64.4c0.2,0.1,0.6,0.1,0.8,0.3c0.3,0.4-0.1,0.7-0.5,0.9c-2.7,1.6-4.4,4.1-6.1,6.6
	c-0.8,1.2-1.6,1.6-3.1,1.1c-3-1-6-1.9-8.9-3.3c-0.5-0.2-1.1-0.4-1-1c0-0.7,0.7-0.7,1.2-0.7c5.7-0.6,11.4-1.3,16.7-3.8
	C60.1,64.4,60.4,64.4,60.7,64.4z"/>
<path class="st1" d="M107.2,143.7c-1.1-2.1-1.4-4.2-1.8-6.2c-0.4-2.2-0.5-4.4-0.6-6.6c0-1.4,0.4-2.2,1.8-2.4
	c2.2-0.4,3.9-1.7,5.5-3.2c0.4-0.4,0.8-1,1.4-0.7c0.7,0.4,0.4,1.2,0.3,1.8c-0.2,1.4-0.9,2.5-1.6,3.7c-2.2,4-4.5,8-4.6,12.8
	C107.7,143.1,107.5,143.3,107.2,143.7z"/>
<path class="st2" d="M65.8,63.3c-3.4-0.2-6.7-0.7-9.8-2.3c-0.6-0.3-1.6-0.5-1.5-1.3c0.1-1,1.1-0.7,1.7-0.8c4.5-0.6,9-1.3,13.3-2.8
	c0.5-0.2,1-0.5,1.5-0.1c0.6,0.5,0.1,1.1-0.1,1.6c-0.3,1-0.7,1.9-1.1,2.9C68.8,63.4,68.8,63.4,65.8,63.3z"/>
<path d="M99.2,55.1c1.3,0.6,2.6,0.9,4.1,0.6c1.8-0.4,3.8,1.2,4.2,2.9c0,0.1,0,0.1,0,0.2c0.1,0.5-0.1,1-0.5,1.2
	c-2.2,1.1-0.6,5.4-4.4,5.3c-0.4,0-0.9,0.1-1.3,0.3c-0.7,0.4-1.4,0.8-2.1,0.1c-0.7-0.7-1-1.5-0.8-2.6c0.4-2.3,0.7-4.7,0-7
	C98.6,55.6,98.8,55.3,99.2,55.1z"/>
<path class="st3" d="M135.8,101.1c-0.1,0.8,0.1,1.7-0.5,2.3c-2.6,2.6-3.9,6-5.1,9.4c-0.3,1-0.5,2.6-1.7,2.5
	c-0.9-0.1-0.7-1.7-0.9-2.7c-0.7-3.3-0.3-6.5,1.1-9.6c0.4-0.9,1-1.3,1.8-1.5c1.1-0.3,2.2-0.8,3.2-1.4c0.5-0.3,1-1.1,1.7-0.7
	C136.1,99.5,135.7,100.4,135.8,101.1z"/>
<path class="st1" d="M79.1,52.5c-2.1,0-4.6-0.2-7-1.1c-0.5-0.2-1.2-0.4-1.1-1.1c0.1-0.6,0.8-0.6,1.3-0.6c4.7-0.8,9.3-2,13.6-4.2
	c0.4-0.2,0.9-0.6,1.2-0.1c0.3,0.5-0.2,0.8-0.5,1.2c-0.9,1.1-1.7,2.2-2.1,3.5c-0.6,2.1-1.9,2.8-3.9,2.5C80.4,52.4,80,52.5,79.1,52.5z
	"/>
<path class="st4" d="M173.7,46.5c-0.6,0-1.3,0.9-1.9,0.1c-0.5-0.6,0-1.3,0.3-1.8c0.5-0.9-0.1-3.1,2.2-1.7c0-2.4,0.7-4.6-0.9-6.6
	c-0.2-0.3-0.2-0.6,0.2-0.8c0.3-0.2,0.6,0,0.9,0.2c1.2,0.9,2.2,2.1,2.8,3.4c1.1,2.2,2.7,3.2,5.3,2.8c0.9-0.2,1.9-0.1,3,0.5
	c-1.5,1.2-3.3,1-4.8,1.7C178.5,45.4,176.2,46.2,173.7,46.5z"/>
<path class="st1" d="M166.8,45.9c0.1,0.1,0.2,0.2,0.3,0.2c0.7,0.7,2.5,0.7,2.1,2c-0.4,1.2-1.9,1.8-3.3,2c-0.6,0.1-1.1,0-1.7,0
	c-2.2,0.1-3.5-1.6-5.1-2.7c-1-0.8-1.8-1.8-2.8-2.7c-0.6-0.6-0.7-1.2-0.4-1.9c2.5-0.5,4.7,0.5,7,1.2
	C164.4,44.2,165.9,44.3,166.8,45.9z"/>
<path class="st5" d="M182,87.8c-0.8-0.1-1.5-0.3-2.2-0.7c-0.6-0.4-0.8-0.9-0.1-1.4c2.3-1.4,3.9-3.6,6-5.2c0.4-0.3,0.9-1,1.5-0.5
	c0.4,0.4,0.2,1,0,1.5c-0.7,2.1-1.9,4-3.5,5.5C183.2,87.5,182.7,87.9,182,87.8z"/>
<path class="st6" d="M206.4,50.5c-1.2-0.3-2.6,0.3-3.4-1c-0.3-0.5-0.7-1-0.4-1.6c0.2-0.6,0.8-0.5,1.3-0.5c1,0,2.1,0,3.1,0
	c2,0.1,2.4,0.5,2,2.5c-0.2,0.8-0.5,1.6-0.9,2.3c-0.4,0.7-0.9,1.4-1.8,0.8c-0.8-0.6-0.8-1.2-0.1-2C206.2,50.9,206.3,50.7,206.4,50.5z
	"/>
<path class="st7" d="M158.9,62.3c0-1.3,0.4-2.3,2-2.3c1.5,0,3,1.3,3.1,2.5c0,0.7-2.4,3.4-3.1,3.4C159.8,66,158.9,64.2,158.9,62.3z"
	/>
<path class="st5" d="M193.4,68c1.5,0,2.2,0.6,1.7,2c-0.6,1.8-1.6,3.4-3.3,4.4c-0.4,0.3-0.9,0.7-1.4,0.2c-0.4-0.4-0.2-0.8,0-1.3
	c0.5-1.4,0.9-2.8,1.4-4.2C192,68.3,192.5,67.9,193.4,68z"/>
<path class="st7" d="M171.9,64.7c0.1,0.9-2,3.2-2.7,3.3c-0.9,0.1-2.6-1.9-2.7-3.2c-0.1-1.4,0.9-1.6,1.9-1.6
	C169.7,63.2,171.1,63.4,171.9,64.7z"/>
<path class="st8" d="M183.6,67.9c0.2-1.4,1.8-1,2.9-1.1c0.8-0.1,2-0.3,2.1,1c0.1,1.1-2.3,3.6-3.6,3.7
	C184,71.6,183.7,70.9,183.6,67.9z"/>
<path class="st9" d="M163.7,43.5c0-1,0.8-0.8,1.4-0.9c1.4-0.2,2.8-0.2,4.3,0c1,0.2,1.9,0.5,1.5,1.8c-0.3,1-0.9,1.9-2.3,1.4
	c-0.4-0.2-0.9-0.3-1.3-0.4C165.9,45.2,164.6,44.8,163.7,43.5z"/>
<path class="st10" d="M164,78.4c-0.9-0.3-1.6-0.9-2.3-1.5c-0.1-2.4,1.8-2.1,3.2-2.3c1.1-0.2,1.3,0.7,1.5,1.6
	c0.4,1.6-0.1,2.1-1.8,1.8C164.3,77.9,163.8,77.6,164,78.4z"/>
<path class="st11" d="M164.1,52.8c-3.1,0.8-5.8,2.4-8.6,3.8c-3.9,1.9-7.4,4.2-9.7,8.4c0.1-1.6,0.3-2.1,1.3-3.3
	c1.4-1.7,3.2-3,5.1-4.1c3.4-1.8,6.9-3.5,10.3-5.3C162.9,52.9,163.6,52.7,164.1,52.8z"/>
<path class="st12" d="M169.1,80.8c0.3-1.4,2.3-2.6,3.7-2.2c1.3,0.4,1.1,1.4,0.9,2.4c-0.1,1-0.8,1.4-1.8,1.2
	C170.8,82,169.6,82,169.1,80.8z"/>
<path class="st13" d="M179.2,82.8c-0.2,1,0,2.4-1.6,2.5c-0.9,0.1-1.6-0.5-1.8-1.4c-0.1-0.8,1.7-2.7,2.5-2.6
	C179.2,81.3,179.1,82,179.2,82.8z"/>
<path class="st3" d="M168.4,55.5c1-0.5,1.9-0.3,2.9,0.3c1.4,0.9,2.6,2.2,4.4,2.4c0.7,0.1,0.9,0.7,0.9,1.3c-2.2-0.8-4.3-2-6.6-2.3
	C168.7,57,169.5,55.5,168.4,55.5z"/>
<path class="st14" d="M161.1,72.4c-0.3,0.7-0.2,2.1-1.6,1.9c-1-0.1-2.1-1-1.9-2.1c0.2-1.4,1.6-1.2,2.6-1.3
	C161.1,70.9,161.1,71.6,161.1,72.4z"/>
<path class="st15" d="M155.9,42.7c-0.2,0.8,0.3,1.2,0.8,1.7c2.2,2.3,4.5,4.4,7.5,5.7c-0.3,0.1-0.6,0.3-0.8,0.4
	c-2.7-0.6-4.3-2.8-6.2-4.5c-0.7-0.6-1.4-1.3-2-2C155.3,43.5,155.6,43.1,155.9,42.7z"/>
<path class="st16" d="M177,68.8c-1.3-0.3-1.4-1.3-1.6-2.2c-0.1-0.6,0.1-1.1,0.8-1c1,0.1,2.1,0.4,2.3,1.7
	C178.6,68.2,177.7,68.5,177,68.8z"/>
<path class="st17" d="M173.7,46.5c2.3-1,4.7-1.8,7.1-2.2c0.4,0.1,0.8,0.3,1.2,0.4c-2.5,0.7-5,1.5-7.4,2.2
	C174.3,46.8,174,46.7,173.7,46.5z"/>
<path class="st18" d="M174.2,52.5c-1.9,0.7-3.8,0.3-5.7,0.3c-1.2,0-2.4,0-3.7,0c0.5-0.2,1-0.5,1.6-0.7c2.5-0.3,4.9,0.8,7.4,0
	C174,52.1,174.2,52.2,174.2,52.5z"/>
<path class="st19" d="M152.5,71.8c0.4,1.1,1.5,2.2,0.2,3.5c-0.3,0.3,0.3,1.3,0.4,2c0,0.2-0.2,0.3-0.3,0.4c-1.5-1.8-0.8-3.9-0.7-5.9
	C152.2,71.8,152.4,71.8,152.5,71.8z"/>
<path class="st20" d="M110.1,46.6c-1.9-1.6-4.6-2.1-6.2-4.3c0.2-0.4,0.5-0.8,0.7-1.2c0,1.2,0.7,1.9,1.7,2.5c1.4,0.8,3,1.3,4.3,2.5
	C110.6,46.4,110.4,46.6,110.1,46.6z"/>
<path class="st21" d="M45,82.3c0.7-1.6,1.5-3.1,2.6-4.3c0.1,0.1,0.3,0.3,0.4,0.4c-0.9,1.6-1.8,3.2-2.6,4.7
	C45.2,82.9,45.1,82.6,45,82.3z"/>
<path class="st22" d="M74.8,80c0.2-1.4,1.1-2.4,2-3.4c0.2,0.3,0.3,0.5,0.5,0.8c-1,1.1-1.5,2.5-2,3.9C75.1,80.8,74.9,80.4,74.8,80z"
	/>
<path class="st23" d="M163.7,43.5c1.2,0.6,2.4,1.3,3.6,1.9c-0.2,0.2-0.4,0.4-0.5,0.5c-1.4-0.5-2.7-1.1-3.9-2
	C163.2,43.8,163.4,43.6,163.7,43.5z"/>
<path class="st24" d="M158.7,37c-1.4,0.6-2.9,0.8-4.5,0.4c1.4-0.3,2.7-0.5,4.1-0.8C158.4,36.7,158.6,36.8,158.7,37z"/>
<path class="st25" d="M169.1,80.8c0.9,0.5,1.9,1,2.8,1.5c-0.3,0.1-0.5,0.3-0.8,0.4c-0.9-0.3-1.7-0.8-2.4-1.5
	C168.8,81.1,169,80.9,169.1,80.8z"/>
<path class="st26" d="M136.1,36.1c1,0.3,1.4,1.2,1.9,1.9c0.2,0.4,0,0.5-0.4,0.4c-0.7-0.6-1.4-1.2-2.1-1.9
	C135.8,36.4,136,36.3,136.1,36.1z"/>
<path class="st27" d="M146.3,83.9c-0.2,0.7-0.5,1.5-1.2,2c-0.2-0.2-0.3-0.3-0.5-0.5c0.4-0.6,0.8-1.3,1.2-1.9
	C146.2,83.4,146.4,83.5,146.3,83.9z"/>
<path class="st28" d="M110.1,46.6c0.2-0.2,0.3-0.3,0.5-0.5c2.6,1.6,4.7,3.8,6.7,6.1c3.9,4.4,8.5,5.7,14.1,4.3c1.6-0.4,3.3-0.5,5-0.6
	c1.4-0.1,2.7,0.3,3.9,1.6c-1.1,0-2-0.9-2.9-0.2c-0.2,0.3-0.3,0.7-0.8,0.4c-1.7-0.8-3.4-0.5-5,0.3c-6,1.7-10.7-0.6-14.7-4.9
	C114.7,51,112.3,48.8,110.1,46.6z"/>
<path class="st29" d="M174.2,52.5c-0.2-0.2-0.3-0.3-0.5-0.5c3.1-2.1,6-0.6,8.9,0.6c3.8,1.7,6.3,4.2,8.9,8.7c-0.9,0-1.3-0.6-1.8-1
	c-1.2-1.1-2.4-2.1-3.5-3.4C183,53.3,179,51.8,174.2,52.5z"/>
<path class="st30" d="M146.6,44.3c2.3,0.7,4.1,2.1,5.5,4.1c1.3,1.9,0.6,4.2-1.4,4.7c-0.8,0.2-1.2,0.2-1-0.9c0.8-4.6-0.1-5.9-5-7.5
	C145.2,43.6,145.9,44.1,146.6,44.3z"/>
<path class="st31" d="M144.3,46.6c0.2,0.3,0.5,0.6,0.9,1.1c-3.1-0.4-6.1-0.2-8-3c-0.4-0.6-0.9-1.3-1.7-1.1c-1,0.2-0.2,1.3-0.7,1.8
	c-0.8-0.2-1.5-0.6-2.2-1.1c-0.2-1,1-0.3,1.2-0.9c0.5-1,0.5-2.5,1.6-2.6c0.9-0.1,1,1.4,1.6,2.2c1.7,2.1,3.6,3.8,6.5,3.7
	C143.8,46.4,144,46.4,144.3,46.6z"/>
<path class="st32" d="M124.2,48.1c0.8,0.2,1.6,0.8,2,1.4c1.3,1.7,2.8,1.7,4.7,1.3c2.9-0.7,5.8-0.7,8.5,1c-3.5-1-6.9-0.4-10.2,0.5
	c-1.2,0.3-2.1,0.1-2.9-0.9c-0.8-1-1.7-1.9-2.6-2.9C123.7,48.2,123.7,47.9,124.2,48.1z"/>
<path class="st33" d="M115.8,43.1c4.5,0.5,4.5,0.5,4.2-1.8c1.1,0.4,2.1,0.8,3.2,1.2c0.4,0.2,0.7,0.5,0.4,0.8
	c-0.4,0.4,0.1,1.2-0.9,1.2c-1.8,0-3.7-1.1-5.5,0.4C116.9,45.3,116.4,44,115.8,43.1z"/>
<path class="st32" d="M133.8,43.4c-0.4,0.3-0.8,0.6-1.2,0.9c-0.9-0.4-1.9-0.8-2.8-1.3c-0.5-0.2-1.1-0.7-1.6-0.2
	c-0.5,0.4,0.2,0.9,0.1,1.7c-1-0.4-1.9-0.7-3-1.1c1.4-0.5,0.9-1.6,1.2-2.5c0.1-0.4,0.2-0.8,0.5-1c0.4-0.2,0.6,0.3,0.9,0.6
	C129.5,42.1,131.2,43.8,133.8,43.4z"/>
<path class="st34" d="M192.8,50.5c-3.9-1.2-7.8-1.5-11.8-1c4.3-0.9,8.5-1.8,12.6,0.6C193.6,50.8,193.2,50.7,192.8,50.5z"/>
<path class="st35" d="M136.5,57.9c0.3-0.1,0.5-0.3,0.8-0.4c0,0.3,0,0.6,0.1,1c0.7,3.8-1.5,5.9-5.7,4.9c1.6-0.7,3.1-1.1,4.1-2.2
	C136.7,60.2,137.3,59.2,136.5,57.9z"/>
<path class="st36" d="M144.3,46.6c-0.2,0-0.5,0-0.7,0c0.1-0.5,0-0.9-0.4-1.2c-2.5-1.8-3.6-4.7-5.4-7c0.1-0.1,0.2-0.2,0.4-0.4
	c1,1.5,2.1,2.9,3.1,4.4c0.8,1.2,1.7,1.9,3.2,1.4c0.7-0.2,1.5-0.1,2.2,0.4c-0.6,0.1-1.4-0.2-1.9,0.4C143.6,45.1,144,45.9,144.3,46.6z
	"/>
<path class="st37" d="M146.3,83.9c-0.1-0.1-0.3-0.3-0.4-0.4c0.4-1.9,0.3-3.9,1.1-5.7C147.2,79.9,147.2,82,146.3,83.9z"/>
<path class="st38" d="M124.2,48.1c-0.1,0.1-0.3,0.2-0.4,0.4c-0.7-0.6-1.7-0.2-2.5-0.7C122.3,47.2,123.2,47.4,124.2,48.1z"/>
<path class="st39" d="M117.7,45.9c0.4,0.9,1.3,1.1,0.7,1.9c-0.1,0.2-0.7,0.3-0.9,0.1C116.9,47.3,117.5,46.8,117.7,45.9z"/>
<path class="st40" d="M192.8,50.5c0.3-0.1,0.5-0.3,0.8-0.4c0.8,0.2,1.3,0.7,1.9,1.2c0.1,0.4,0,0.6-0.4,0.4
	C194.3,51.3,193.5,50.9,192.8,50.5z"/>
<path class="st41" d="M195.1,51.7c0.1-0.1,0.3-0.3,0.4-0.4c0.7,0.4,1.3,0.8,1.4,1.8C196.3,52.6,195.7,52.1,195.1,51.7z"/>
<path class="st34" d="M152.8,77.7c0.1-0.1,0.2-0.3,0.3-0.4c4.7,3.3,9.6,6.1,14.6,8.8c2.3,1.3,4.6,2.6,6.8,4
	c-1.2,0.1-2.3-0.3-3.3-0.9c-5.8-3.1-11.5-6.5-17-10C153.6,78.8,152.9,78.5,152.8,77.7z"/>
<path d="M98.4,46.6c2.9-1.5,5.9-0.9,8.9-0.2c1.4,0.3,1.9,1.8,1.8,3.1c-0.3,2.5-2.2,3.4-4.7,3c-1.6-0.3-2.8-1.6-4.4-1.7
	c-0.7-0.1-0.9-0.8-1-1.5C98.8,48.3,98.6,47.4,98.4,46.6C98.5,46.5,98.4,46.6,98.4,46.6z"/>
</svg>
